<svg xmlns="http://www.w3.org/2000/svg" viewBox="0 0 96 96" role="img" aria-labelledby="title">
  <title>Koi app icon</title>
  <defs>
    <linearGradient id="bg" x1="12" x2="86" y1="8" y2="88" gradientUnits="userSpaceOnUse">
      <stop stop-color="#fb7185"/>
      <stop offset=".48" stop-color="#f97316"/>
      <stop offset="1" stop-color="#0f766e"/>
    </linearGradient>
  </defs>
  <rect width="96" height="96" rx="18" fill="url(#bg)"/>
  <path d="M48 72c-3-9-24-19-24-35 0-9 7-16 16-16 4 0 8 2 11 5 3-3 7-5 11-5 9 0 16 7 16 16 0 16-22 26-30 35Z" fill="#fff" opacity=".94"/>
  <path d="M36 38c8 2 16 0 24-8M37 52c9 3 19 0 27-8" stroke="#0f766e" stroke-width="4" stroke-linecap="round" opacity=".72"/>
</svg>
