<svg xmlns="http://www.w3.org/2000/svg" viewBox="0 0 96 96" role="img" aria-labelledby="title">
  <title>SignTalk app icon</title>
  <defs>
    <linearGradient id="bg" x1="10" x2="88" y1="8" y2="88" gradientUnits="userSpaceOnUse">
      <stop stop-color="#1d4ed8"/>
      <stop offset="1" stop-color="#0f766e"/>
    </linearGradient>
  </defs>
  <rect width="96" height="96" rx="18" fill="url(#bg)"/>
  <path d="M32 56V35c0-4 6-4 6 0v14-20c0-4 6-4 6 0v20-24c0-4 7-4 7 0v24-17c0-4 6-4 6 0v26l6-8c3-4 9 0 6 5L57 72H40c-5 0-8-5-8-16Z" fill="#fff"/>
  <path d="M68 25c5 3 8 8 8 14M72 18c8 5 13 13 13 22" stroke="#bfdbfe" stroke-width="4" stroke-linecap="round"/>
</svg>
